<svg id="outline-remove_red_eye-24px" xmlns="http://www.w3.org/2000/svg" width="20.5" height="20.5" viewBox="0 0 20.5 20.5">
  <path id="Path_715" data-name="Path 715" d="M0,0H20.5V20.5H0Z" fill="none"/>
  <path id="Path_716" data-name="Path 716" d="M10.4,6.208a8.345,8.345,0,0,1,7.534,4.7,8.39,8.39,0,0,1-15.068,0,8.345,8.345,0,0,1,7.534-4.7m0-1.708A10.1,10.1,0,0,0,1,10.906a10.093,10.093,0,0,0,18.792,0A10.1,10.1,0,0,0,10.4,4.5Zm0,4.271A2.135,2.135,0,1,1,8.26,10.906,2.136,2.136,0,0,1,10.4,8.771m0-1.708a3.844,3.844,0,1,0,3.844,3.844A3.85,3.85,0,0,0,10.4,7.063Z" transform="translate(-0.146 -0.656)" fill="#007feb"/>
</svg>
